<svg width="607" height="391" viewBox="0 0 607 391" fill="none" xmlns="http://www.w3.org/2000/svg" class="b-cover-image">
<path fill-rule="evenodd" clip-rule="evenodd" d="M538.043 76.8802C538.533 75.2916 538.8 73.6017 538.8 71.8464C538.8 62.643 531.542 55.1821 522.589 55.1821C520.108 55.1821 517.766 55.7722 515.663 56.7967C515.979 51.3811 514.144 45.8575 510.119 41.7198C505.643 37.1192 499.504 35.298 493.693 36.2128C489.551 20.3593 475.48 8.68546 458.751 8.68546C438.767 8.68546 422.567 25.3395 422.567 45.8826C422.567 50.9403 423.553 55.7603 425.332 60.1564C422.587 60.2092 420.029 61.019 417.831 62.3875C414.183 57.9807 408.752 55.1821 402.684 55.1821C391.702 55.1821 382.8 64.3332 382.8 75.6219C382.8 76.0449 382.817 76.4636 382.841 76.8802H538.043Z" fill="white"/>
<path fill-rule="evenodd" clip-rule="evenodd" d="M98.4 27.3594C98.4 28.2153 98.4951 29.0373 98.6971 29.8334H172.8C172.17 26.0121 169.936 22.7161 166.788 20.6525C166.823 20.337 166.848 20.0076 166.848 19.6675C166.848 14.8836 162.913 11.0036 158.078 11.0036C157.376 11.0036 156.71 11.0963 156.069 11.2499C151.899 4.89354 144.662 0.697021 136.426 0.697021C125.707 0.697021 116.676 7.80143 113.909 17.4983C112.517 16.8781 110.984 16.5263 109.368 16.5263C103.308 16.5263 98.4 21.3794 98.4 27.3594" fill="white"/>
<path fill-rule="evenodd" clip-rule="evenodd" d="M205.2 136.216C205.2 137.072 205.295 137.894 205.497 138.69H279.6C278.97 134.869 276.736 131.573 273.588 129.509C273.623 129.194 273.648 128.864 273.648 128.524C273.648 123.74 269.713 119.861 264.878 119.861C264.176 119.861 263.51 119.953 262.869 120.107C258.699 113.75 251.462 109.554 243.226 109.554C232.507 109.554 223.476 116.658 220.709 126.355C219.317 125.735 217.784 125.383 216.168 125.383C210.108 125.383 205.2 130.236 205.2 136.216" fill="white"/>
<mask id="mask0" mask-type="alpha" maskUnits="userSpaceOnUse" x="0" y="149" width="606" height="269">
<rect x="0.693665" y="149.149" width="604.999" height="268.573" fill="white"/>
</mask>
<g mask="url(#mask0)">
<path d="M407.868 347.256C407.245 345.052 406.899 342.72 406.899 340.288C406.899 327.543 416.156 317.209 427.575 317.209C430.741 317.209 433.729 318.023 436.406 319.443C436.005 311.949 438.344 304.295 443.475 298.568C449.185 292.195 457.011 289.674 464.427 290.945C469.71 268.988 487.656 252.828 508.99 252.828C534.477 252.828 555.136 275.887 555.136 304.335C555.136 311.343 553.882 318.013 551.614 324.098C555.118 324.168 558.382 325.289 561.183 327.185C565.834 321.081 572.762 317.209 580.499 317.209C594.505 317.209 605.853 329.885 605.853 345.509C605.853 346.095 605.835 346.67 605.799 347.256H407.868V347.256Z" fill="white"/>
<path d="M281.685 337.34C282.575 334.213 283.055 330.898 283.055 327.443C283.055 309.358 269.92 294.697 253.717 294.697C249.226 294.697 244.984 295.858 241.178 297.873C241.747 287.232 238.43 276.373 231.138 268.243C223.036 259.201 211.929 255.627 201.408 257.424C193.912 226.266 168.442 203.326 138.161 203.326C101.994 203.326 72.6646 236.053 72.6646 276.433C72.6646 286.369 74.4521 295.848 77.6714 304.484C72.7002 304.593 68.0759 306.181 64.0918 308.871C57.4932 300.216 47.6576 294.707 36.6747 294.707C16.7989 294.707 0.684784 312.693 0.684784 334.878C0.684784 335.712 0.711463 336.536 0.755928 337.35H281.685V337.34Z" fill="white"/>
<path d="M516.701 390.494L-0.702515 390.584L95.2084 331.821L451.675 331.185L516.701 390.494Z" fill="#62B55A"/>
<path d="M361.998 390.524L296.43 390.534L299.916 331.453L345.092 331.374L361.998 390.524Z" fill="#B0D4A5"/>
<path d="M364.942 338.243L356.004 338.253L360.913 334.967L372.607 334.947L380.558 351.435L370.429 351.445L364.942 338.243Z" fill="#B0D4A5"/>
<path fill-rule="evenodd" clip-rule="evenodd" d="M398.637 351.087C401.047 351.435 403.564 351.604 406.187 351.604C408.811 351.604 411.105 351.425 413.044 351.068C414.991 350.71 416.494 350.184 417.544 349.489C418.575 348.795 419.127 347.911 419.198 346.859C419.251 345.807 418.726 344.566 417.633 343.137C416.539 341.717 415.178 340.476 413.551 339.424C411.941 338.372 410.162 337.498 408.215 336.804C406.276 336.109 404.213 335.593 401.999 335.245C399.802 334.898 397.534 334.729 395.204 334.729C392.874 334.739 390.838 334.918 389.086 335.265C387.334 335.622 385.929 336.149 384.889 336.843C383.839 337.548 383.181 338.422 382.941 339.474C382.683 340.536 382.932 341.777 383.688 343.196C384.453 344.616 385.538 345.856 386.961 346.909C388.401 347.961 390.1 348.834 392.065 349.529C394.048 350.224 396.236 350.74 398.637 351.087ZM406.748 347.901C405.921 348.06 404.978 348.139 403.937 348.139C402.897 348.139 401.856 348.07 400.834 347.901C399.802 347.752 398.824 347.484 397.899 347.107C396.974 346.73 396.12 346.224 395.329 345.588C394.546 344.953 393.862 344.149 393.275 343.176C392.688 342.204 392.403 341.399 392.412 340.764C392.421 340.129 392.643 339.613 393.061 339.236C393.479 338.858 394.075 338.59 394.849 338.432C395.622 338.273 396.503 338.193 397.472 338.193C398.45 338.193 399.42 338.273 400.398 338.422C401.376 338.571 402.31 338.839 403.199 339.216C404.097 339.593 404.96 340.099 405.796 340.734C406.632 341.37 407.397 342.174 408.082 343.146C408.766 344.129 409.131 344.933 409.166 345.568C409.202 346.214 409.015 346.72 408.606 347.097C408.197 347.474 407.575 347.742 406.748 347.901Z" fill="#B0D4A5"/>
<path fill-rule="evenodd" clip-rule="evenodd" d="M439.251 351.038C441.75 351.385 444.32 351.554 446.944 351.554C449.567 351.554 451.808 351.375 453.676 351.018C455.526 350.661 456.886 350.135 457.749 349.44C458.603 348.745 458.914 347.861 458.7 346.809C458.469 345.757 457.607 344.516 456.13 343.087C454.654 341.658 452.956 340.417 451.044 339.365C449.149 338.312 447.139 337.439 445.005 336.744C442.889 336.049 440.674 335.533 438.371 335.186C436.077 334.838 433.764 334.669 431.434 334.669C429.105 334.679 427.112 334.858 425.458 335.206C423.795 335.563 422.533 336.089 421.679 336.784C420.807 337.479 420.389 338.362 420.434 339.414C420.461 340.466 421.047 341.707 422.186 343.137C423.324 344.566 424.747 345.807 426.454 346.859C428.171 347.911 430.109 348.785 432.262 349.479C434.431 350.174 436.761 350.69 439.251 351.038ZM446.508 347.852C445.717 348.01 444.801 348.09 443.76 348.09C442.72 348.1 441.653 348.02 440.585 347.871C439.509 347.713 438.46 347.445 437.437 347.067C436.415 346.69 435.419 346.184 434.458 345.549C433.498 344.913 432.608 344.109 431.755 343.127C430.901 342.144 430.403 341.34 430.243 340.705C430.074 340.069 430.154 339.553 430.474 339.176C430.785 338.799 431.31 338.531 432.048 338.372C432.786 338.213 433.64 338.134 434.609 338.134C435.588 338.134 436.584 338.213 437.597 338.362C438.62 338.511 439.625 338.779 440.621 339.156C441.626 339.533 442.622 340.04 443.627 340.675C444.632 341.31 445.61 342.124 446.561 343.097C447.504 344.08 448.082 344.884 448.296 345.519C448.509 346.154 448.456 346.67 448.153 347.047C447.842 347.425 447.291 347.693 446.508 347.852Z" fill="#B0D4A5"/>
<path d="M468.643 354.78L392.412 354.85L391.523 353.222L466.944 353.142L468.643 354.78Z" fill="#B0D4A5"/>
<path d="M501.645 386.534L409.789 386.554L405.405 378.553L493.312 378.514L501.645 386.534Z" fill="#B0D4A5"/>
<path d="M244.504 390.544L22.4015 390.584L56.9418 367.694C83.5852 350.035 142.119 335.662 187.669 335.583L262.832 335.464L244.504 390.544Z" fill="#B0D4A5"/>
<path d="M296.43 390.534L-0.524658 390.584L5.88719 386.653L296.661 386.584L296.43 390.534Z" fill="#62B55A"/>
<mask id="mask1" mask-type="alpha" maskUnits="userSpaceOnUse" x="50" y="331" width="283" height="60">
<path fill-rule="evenodd" clip-rule="evenodd" d="M332.687 390.524L50.8768 390.584L130.745 331.751L324.896 331.414L332.687 390.524Z" fill="white"/>
</mask>
<g mask="url(#mask1)">
<path d="M299.747 334.312L206.131 334.471L208.301 331.612L299.916 331.453L299.747 334.312Z" fill="#F39200"/>
</g>
<mask id="mask2" mask-type="alpha" maskUnits="userSpaceOnUse" x="50" y="331" width="283" height="60">
<path fill-rule="evenodd" clip-rule="evenodd" d="M332.687 390.524L50.8768 390.584L130.745 331.751L324.896 331.414L332.687 390.524Z" fill="white"/>
</mask>
<g mask="url(#mask2)">
<path d="M249.831 334.511C249.831 334.511 238.386 332.327 207.776 336.377C187.206 338.977 171.457 347.603 166.512 354.621C163.72 358.671 154.809 372.359 178.376 377.759L270.596 375.784C270.596 375.784 290.294 360.001 293.46 353.321C296.403 346.65 284.487 333.429 249.831 334.511Z" fill="#62B55A"/>
<path d="M232.765 345.152C232.765 345.152 221.249 348.447 199.123 352.497C192.115 353.738 185.73 355.584 181.079 357.817C179.256 358.681 177.726 359.594 177.015 360.458C174.489 363.525 157.264 378.782 173.742 381.333L168.024 390.822L249.902 390.812L270.614 375.794C270.614 375.794 261.427 369.788 279.204 362.096C279.204 362.096 268.07 357.46 275.967 353.331C275.949 353.321 255.629 343.037 232.765 345.152Z" fill="#B0D4A5"/>
<path d="M211.315 337.786L232.765 345.152C232.765 345.152 258.101 345.469 253.548 354.135C253.548 354.135 233.139 352.596 227.287 359.852C221.231 367.108 231.529 367.237 219.986 369.441L216.589 373.858C216.589 373.858 214.117 372.707 209.803 373.342C205.455 373.967 197.184 375.347 192.996 374.9C192.996 374.9 192.347 376.707 196.926 376.369C201.489 376.022 206.78 375.208 213.049 375.407C219.337 375.595 226.531 376.985 226.531 376.985C226.531 376.985 206.94 376.191 204.779 378.504C202.591 380.816 223.179 378.712 224.673 380.687C226.229 382.663 182.004 384.469 167.09 378.007C167.09 378.007 167.313 379.02 169.18 379.993C169.225 380.022 169.278 380.042 169.323 380.072C179.852 385.333 198.109 389.045 220.955 390.494L226.158 390.822L259.062 390.812L270.596 375.794L288.738 367.942L287.119 348.02L247.083 336.704L211.315 337.786Z" fill="#62B55A"/>
<path d="M188.496 357.023C188.496 357.023 201.542 353.43 211.146 354.949C220.964 356.467 215.041 358.592 215.041 358.592C215.041 358.592 217.336 360.617 212.685 361.49C207.98 362.364 190.568 362.304 186.415 361.212C182.324 360.12 196.686 356.894 210.782 357.5C210.782 357.5 206.646 356.001 200.795 356.547C194.899 357.103 185.036 357.817 188.496 357.023Z" fill="#62B55A"/>
<path d="M177.006 360.458C177.006 360.458 174.614 358.999 171.795 360.458C168.94 361.917 166.557 367.674 170.817 368.012C175.094 368.349 182.769 363.793 182.769 363.793L177.006 360.458Z" fill="#B0D4A5"/>
</g>
<mask id="mask3" mask-type="alpha" maskUnits="userSpaceOnUse" x="50" y="331" width="283" height="60">
<path fill-rule="evenodd" clip-rule="evenodd" d="M332.687 390.524L50.8768 390.584L130.745 331.751L324.896 331.414L332.687 390.524Z" fill="white"/>
</mask>
<g mask="url(#mask3)">
<path d="M193.974 387.249C193.974 387.249 183.649 387.249 172.391 385.859C147.472 382.712 117.085 382.663 86.1642 386.048C62.6156 388.549 38.4444 392.112 25.185 396.996C-8.75065 408.977 193.974 387.249 193.974 387.249Z" fill="#62B55A"/>
</g>
<mask id="mask4" mask-type="alpha" maskUnits="userSpaceOnUse" x="50" y="331" width="283" height="60">
<path fill-rule="evenodd" clip-rule="evenodd" d="M332.687 390.524L50.8768 390.584L130.745 331.751L324.896 331.414L332.687 390.524Z" fill="white"/>
</mask>
<g mask="url(#mask4)">
<path d="M247.794 390.544L161.666 390.564L164.707 386.613L249.039 386.593L247.794 390.544Z" fill="#62B55A"/>
</g>
<mask id="mask5" mask-type="alpha" maskUnits="userSpaceOnUse" x="50" y="331" width="283" height="60">
<path fill-rule="evenodd" clip-rule="evenodd" d="M332.687 390.524L50.8768 390.584L130.745 331.751L324.896 331.414L332.687 390.524Z" fill="white"/>
</mask>
<g mask="url(#mask5)">
<path d="M296.43 390.534L158.375 390.564L160.652 387.675L296.599 387.636L296.43 390.534Z" fill="#F39200"/>
</g>
<mask id="mask6" mask-type="alpha" maskUnits="userSpaceOnUse" x="50" y="331" width="283" height="60">
<path fill-rule="evenodd" clip-rule="evenodd" d="M332.687 390.524L50.8768 390.584L130.745 331.751L324.896 331.414L332.687 390.524Z" fill="white"/>
</mask>
<g mask="url(#mask6)">
<path d="M296.43 390.534L273.219 390.544L283.891 331.672L299.898 331.642L296.43 390.534Z" fill="#F39200"/>
</g>
<path opacity="0.41" d="M144.262 365.341L165.365 358.681L186.593 353.142L187.224 338.789L387.076 350.551L416.032 361.371C394.004 367.227 394.751 362.671 386.694 363.952C374.333 365.927 369.317 364.22 367.698 362.106L213.69 367.128L186.602 362.314L174 364.14L151.999 370.453L148.833 376.767L133.795 364.25L144.262 365.341Z" fill="#60595C"/>
<ellipse rx="22.1473" ry="23.6472" transform="matrix(0.872473 -0.488663 0.41003 0.912072 202.191 180.289)" fill="#B0876E"/>
<path d="M218.91 195.693L211.28 216.389C211.28 216.389 192.676 204.348 186.21 196.159C179.745 187.97 218.91 195.693 218.91 195.693Z" fill="#B0876E"/>
<path d="M184.965 195.871L174.801 213.53L191.155 222.484L198.376 205.996L184.965 195.871Z" fill="#B0876E"/>
<path d="M181.666 232.956L220.733 269.951L257.061 266.526L264.104 274.795L222.965 285.584L202.191 279.51L181.666 232.956Z" fill="#B0876E"/>
<path d="M222.903 317.974L291.085 294.161L370.42 344.586L364.719 351.484L274.891 318.52L217.994 347.593L191.155 222.484C201.622 254.426 213.076 306.4 222.903 317.974Z" fill="#223F6C"/>
<path d="M366.738 347.395C366.738 347.395 366.222 347.713 365.44 348.189C362.923 349.728 357.534 352.864 357.098 352.02C356.956 351.762 356.556 351.316 356.022 350.79C355.648 350.412 355.213 349.996 354.768 349.599C353.176 348.139 351.38 346.631 351.38 346.631L354.332 341.261L354.572 340.824L362.38 345.042L363.821 345.807L366.738 347.395Z" fill="#B0876E"/>
<path d="M392.857 347.395C392.857 347.395 392.172 348.149 386 350.462C383.884 351.266 381.127 352.239 377.516 353.43C374.751 354.353 372.35 355.078 370.277 355.644C369.931 355.733 369.602 355.822 369.273 355.912C362.087 357.788 359.277 357.639 358.948 357.619C358.93 357.619 358.912 357.619 358.912 357.619L355.809 350.929L356.031 350.8L362.772 346.492L363.83 345.827L365.813 344.556C368.321 344.685 370.882 344.864 373.417 345.003C375.151 345.112 376.876 345.201 378.539 345.261C383.973 345.459 388.873 345.32 392.261 344.238L392.483 345.37L392.857 347.395Z" fill="#F39200"/>
<path d="M393.381 348.447C393.381 348.447 392.617 349.271 385.529 351.882C383.564 352.616 381.1 353.46 378.041 354.482C375.16 355.435 372.687 356.17 370.571 356.745C370.518 356.755 370.464 356.785 370.411 356.795C362.265 358.989 359.437 358.671 359.437 358.671L358.948 357.629C359.277 357.649 362.087 357.798 369.273 355.922C369.602 355.832 369.931 355.743 370.277 355.654C372.35 355.078 374.751 354.363 377.516 353.44C381.127 352.249 383.884 351.276 386 350.472C392.172 348.159 392.857 347.405 392.857 347.405L393.381 348.447Z" fill="#FDF0F3"/>
<path d="M363.448 344.477L362.38 345.052L361.349 345.598L357.943 347.395L354.768 349.599L354.75 349.608L320.566 336.297L274.909 318.53L218.012 347.603L215.824 337.389C220.884 331.185 224.068 325.359 224.068 325.359C226.869 324.406 225.508 320.535 235.86 312.008L302.975 288.552L363.448 344.477Z" fill="#4D494C"/>
<path opacity="0.26" d="M370.402 356.795C362.256 358.989 359.428 358.671 359.428 358.671L358.939 357.629C358.921 357.629 358.903 357.629 358.903 357.629L355.8 350.939L356.022 350.81C355.648 350.432 355.213 350.015 354.768 349.618L354.75 349.628L320.566 336.317C330.544 337.23 349.343 338.958 349.841 338.809C350.037 338.749 351.86 339.791 354.332 341.28C356.404 342.531 358.93 344.099 361.34 345.618C361.82 345.926 362.292 346.224 362.754 346.511C363.706 347.117 364.604 347.693 365.44 348.219C366.605 348.963 367.618 349.608 368.374 350.085C369.237 350.631 369.753 350.958 369.753 350.958L370.277 355.683L370.393 356.726L370.402 356.795Z" fill="#0A0005"/>
<path d="M174.801 213.53C174.801 213.53 158.446 240.371 162.377 257.533C165.712 272.115 183.934 330.262 190.888 351.703L191.564 351.981C191.564 351.981 192.916 356.358 193.227 357.311C195.841 365.341 212.614 367.644 234.428 364.716C255.949 361.838 301.143 327.007 301.143 327.007C308.569 319.621 301.143 300.037 301.143 300.037L224.05 325.369C202.244 310.102 215.335 258.982 191.155 222.484L174.801 213.53Z" fill="#2D4E9D"/>
<path d="M187.073 255.945L178.047 311.005C178.047 311.005 172.177 291.927 172.035 291.371C171.875 290.825 187.073 255.945 187.073 255.945Z" fill="#223F6C"/>
<path d="M169.58 229.313V229.313C167.277 231.03 165.65 233.661 165.036 236.678L154.124 289.734L129.793 366.046H140.118L172.426 295.779L185.072 262.983C188.211 254.833 188.683 245.701 186.397 237.204L185.125 232.489C181.559 226.911 174.676 225.511 169.58 229.313Z" fill="#B0876E"/>
<path d="M113.955 371.208L116.445 366.046L122.51 364.458L124.626 362.324H131.385L136.009 366.046H140.1L147.384 370.414L148.824 376.767H146.894C144.885 376.767 143.115 375.268 142.59 373.094L142.421 372.399L138.846 373.789L132.639 373.541L129.411 376.767H116.445L113.955 371.208Z" fill="#B0876E"/>
<path d="M223.765 178.828C223.765 178.828 216.473 182.223 208.79 188.457C204.726 191.772 201.062 194.144 197.842 195.871H197.833C196.74 196.457 195.717 196.953 194.739 197.38C188.096 200.338 183.907 200.239 182.813 200.14C182.618 200.13 182.52 200.12 182.52 200.12C182.52 200.12 182.511 200.1 182.484 200.05C182.369 199.822 181.995 199.028 181.506 197.718C180.99 196.358 180.35 194.422 179.718 191.941C178.42 186.888 177.166 179.563 177.166 170.143C177.166 159.184 191.342 147.015 205.517 150.668C219.692 154.32 226.762 171.711 223.765 178.828Z" fill="#493B2F"/>
<path d="M182.849 200.16C182.849 200.16 176.197 207.267 171.804 206.225C166.495 204.974 164.823 208.686 163.515 209.183L161.586 206.175C154.462 206.175 153.342 203.058 153.342 203.058L153.377 202.85L154.009 199.048L154.062 198.681C152.248 197.787 151.688 195.792 152.115 193.717C153.013 189.3 158.322 184.476 165.33 189.072C170.247 192.288 176.962 191.544 179.71 191.931C180.163 191.99 180.43 192.04 180.43 192.04L181.728 197.102L182.484 200.05L182.813 200.15L182.849 200.16Z" fill="#493B2F"/>
<path d="M198.972 200.557L202.031 209.828L208.923 214.394L211.271 216.379L214.259 211.307C214.259 211.307 215.602 211.168 215.984 210.572C216.331 210.026 215.877 209.321 215.877 209.321L216.215 208.508C216.215 208.508 216.953 208.905 217.336 208.557C217.718 208.21 217.985 205.113 217.985 205.113L219.933 205.927C220.849 206.264 221.782 205.46 221.711 204.378L220.297 193.489L198.972 200.557Z" fill="#B0876E"/>
<path d="M174.978 213.629C174.978 213.629 186.495 232.311 195.441 229.839L191.19 222.394L174.978 213.629Z" fill="#B0876E"/>
<path d="M195.45 229.839L217.087 269.633C217.087 269.633 213.681 280.691 208.505 282.051C208.514 282.061 192.729 266.06 195.45 229.839Z" fill="#2D4E9D"/>
<path opacity="0.23" d="M125.16 376.767L123.79 371.486L128.628 364.15L126.209 371.178L125.791 376.767H128.353L130.176 372.091H136.205L137.939 370.453L142.866 372.091L145.97 376.767H134.924H125.16Z" fill="#60595C"/>
<path opacity="0.23" d="M196.802 209.599C195.779 209.728 197.06 200.06 198.163 195.742C198.643 193.847 202.511 186.342 202.511 186.342L198.696 196.1L199.087 204.001L211.315 216.379C207.216 213.749 202.689 210.503 197.949 206.939L196.802 209.599Z" fill="#60595C"/>
<path d="M207.696 184.734C203.641 181.717 198.972 190.819 197.878 194.472C196.784 198.125 201.151 196.904 201.151 196.904C201.151 196.904 210.968 187.166 207.696 184.734Z" fill="#B0876E"/>
<path d="M368.321 349.867C368.321 349.867 369.602 353.668 369.264 355.773C368.926 357.877 383.644 357.579 383.644 357.579L386.703 348.328C386.703 348.328 382.434 348.11 378.112 344.983C373.799 341.856 368.321 349.867 368.321 349.867Z" fill="#B0876E"/>
<path d="M301.143 300.037L224.05 325.369C224.05 325.369 208.567 353.748 191.493 351.961V351.961C192.32 354.512 192.925 356.368 193.227 357.301C195.841 365.332 212.614 367.634 234.428 364.706C255.949 361.828 301.143 326.997 301.143 326.997C316.51 338.312 353.825 340.278 369.192 353.42C376.44 352.05 380.184 345.658 380.184 345.658L310.979 300.275L301.143 300.037Z" fill="#6A6467"/>
<path d="M416.032 361.371C416.032 361.371 407.459 366.443 388.544 363.326C378.806 361.718 375.729 365.56 371.247 363.376C371.051 363.277 370.855 363.168 370.687 363.058C366.987 360.696 369.273 355.773 369.273 355.773C369.273 355.773 380.94 355.733 381.927 353.509C383.235 350.551 385.484 347.395 385.484 347.395L416.165 356.547L416.067 359.872H416.076L416.032 361.371Z" fill="#F39200"/>
<path d="M416.032 361.371C416.032 361.371 407.459 366.443 388.544 363.326C378.806 361.718 375.729 365.56 371.247 363.376C371.051 363.277 370.855 363.168 370.686 363.058L383.715 361.024C383.715 361.024 392.857 362.85 396.414 362.612C399.971 362.374 413.115 361.907 416.067 359.872H416.076L416.032 361.371Z" fill="#FDF0F3"/>
<path d="M224.441 175.9C228.532 175.751 224.797 187.504 212.898 188.625C204.414 189.429 191.831 186.461 191.831 186.461C191.831 186.461 211.084 188.01 214.161 186.461C217.86 184.605 221.729 179.186 220.822 178.828L224.441 175.9Z" fill="#493B2F"/>
<path d="M182.484 200.05C182.484 200.05 190.248 198.75 194.739 197.38C188.096 200.338 183.907 200.239 182.813 200.14L182.858 200.15C182.858 200.15 176.206 207.257 171.813 206.215C166.503 204.964 164.832 208.676 163.524 209.173L161.595 206.165C154.471 206.165 153.351 203.048 153.351 203.048L153.386 202.84C155.618 203.554 159.86 204.815 160.865 204.378C162.262 203.793 169.509 203.425 169.509 203.425C169.509 203.425 179.852 201.271 182.484 200.05Z" fill="#413020"/>
<path d="M197.833 195.871C197.727 196.159 197.211 196.477 196.437 196.795L197.833 195.871Z" fill="#392B1D"/>
<path d="M162.19 197.38C158.971 198.939 156.232 199.276 154.009 199.048L154.062 198.681C152.248 197.787 151.688 195.792 152.115 193.718C154.311 199.157 162.697 197.142 162.19 197.38Z" fill="#413020"/>
<path opacity="0.23" d="M118.677 368.429L117.032 371.277L118.677 376.767H121.14L119.086 371.684L120.776 367.406L118.677 368.429Z" fill="#60595C"/>
<path d="M219.986 190.581C219.648 190.184 219.212 189.787 218.776 189.459C218.332 189.132 217.852 188.844 217.345 188.635C216.838 188.417 216.304 188.278 215.762 188.218C215.219 188.139 214.659 188.218 214.108 188.318H214.099V188.308C214.632 188.129 215.184 187.97 215.753 187.97C216.322 187.95 216.9 188 217.46 188.159C218.021 188.308 218.572 188.526 219.088 188.814C219.612 189.112 220.102 189.429 220.582 189.876C220.769 190.055 220.804 190.362 220.644 190.581C220.484 190.789 220.208 190.829 220.013 190.65C219.995 190.64 219.986 190.621 219.968 190.611L219.986 190.581Z" fill="#493B2F"/>
<path d="M215.984 191.683C216.509 191.643 217.033 191.613 217.567 191.613C217.834 191.613 218.101 191.623 218.376 191.653C218.519 191.673 218.652 191.683 218.803 191.722C218.954 191.762 219.114 191.792 219.346 192.01C219.506 192.219 219.488 192.526 219.301 192.715C219.114 192.894 218.839 192.874 218.67 192.665C218.714 192.695 218.634 192.596 218.536 192.546C218.447 192.487 218.332 192.437 218.216 192.387C217.985 192.288 217.736 192.209 217.496 192.129C216.998 191.97 216.491 191.841 215.975 191.732C215.966 191.732 215.957 191.712 215.957 191.702C215.966 191.693 215.975 191.693 215.984 191.683Z" fill="#493B2F"/>
<ellipse rx="1.62575" ry="0.664115" transform="matrix(0.51316 -0.858293 0.801966 0.597369 218.239 193.055)" fill="#493B2F"/>
<path d="M216.215 208.508C214.961 207.247 214.143 206.423 213.307 205.569C213.307 205.569 213.236 207.376 214.117 208.18C214.997 208.984 215.788 209.54 215.788 209.54L216.215 208.508Z" fill="white"/>
<path d="M204.539 182.997C204.165 183.315 203.667 183.811 203.24 184.258C202.805 184.724 202.378 185.221 201.96 185.727C201.124 186.729 200.359 187.811 199.674 188.943C198.972 190.065 198.367 191.266 197.878 192.516C197.602 193.142 197.433 193.777 197.211 194.442C196.989 195.197 196.749 195.941 196.473 196.676C195.37 199.584 193.529 202.403 190.915 203.832C188.336 205.291 185.374 205.311 182.849 204.378C185.481 204.775 188.202 204.12 190.194 202.492C192.195 200.854 193.405 198.373 194.027 195.713C194.187 195.048 194.303 194.363 194.41 193.678C194.552 192.923 194.668 192.1 194.881 191.335C195.255 189.777 195.779 188.268 196.411 186.839C197.051 185.399 197.798 184.03 198.634 182.719C199.043 182.064 199.505 181.439 199.968 180.823C200.457 180.198 200.893 179.642 201.524 178.977L204.539 182.997Z" fill="#493B2F"/>
<path d="M267.608 281.425L257.39 272.452C257.185 272.273 257.256 271.469 257.559 270.655L275.532 222.216C275.816 221.451 276.261 220.826 276.528 220.816L289.912 219.933C289.912 219.933 290.721 220.488 290.756 220.508C291.014 220.647 291.014 221.302 290.721 222.096L269.671 280.453C269.422 281.138 269.075 281.356 268.791 281.475C268.471 281.604 267.608 281.425 267.608 281.425Z" fill="#918C8E"/>
<path d="M267.546 281.386L256.838 272.184C256.625 272.005 256.705 271.201 257.007 270.387L275.034 221.868C275.318 221.104 275.763 220.479 276.03 220.469L289.787 219.913C290.169 219.893 290.214 220.627 289.885 221.541L268.728 280.075C268.373 281.048 267.839 281.634 267.546 281.386Z" fill="#C2BFC0"/>
<path d="M288.711 222.513L269.191 276.442C269.057 276.82 268.853 277.048 268.728 276.959L258.359 268.869C258.279 268.799 258.306 268.492 258.421 268.174L275.309 222.662C275.416 222.365 275.594 222.126 275.701 222.116L288.675 221.868C288.827 221.878 288.835 222.156 288.711 222.513Z" fill="#474044"/>
<path d="M273.504 264.531L269.191 276.433C269.057 276.81 268.853 277.038 268.728 276.949L258.359 268.859C258.279 268.789 258.306 268.482 258.421 268.164L269.52 238.266L273.504 264.531Z" fill="#847F82"/>
<path fill-rule="evenodd" clip-rule="evenodd" d="M262.975 273.494C263.01 273.733 262.966 274.13 262.832 274.537C262.815 274.596 262.797 274.646 262.779 274.695L262.779 274.695C262.539 275.331 262.21 275.728 262.032 275.579C262.023 275.569 262.005 275.549 261.996 275.529C261.907 275.39 261.916 275.053 261.996 274.666C262.032 274.507 262.076 274.338 262.139 274.169C262.37 273.544 262.699 273.147 262.877 273.286C262.93 273.326 262.957 273.395 262.975 273.494ZM262.068 275.465C262.07 275.467 262.072 275.47 262.076 275.47C262.237 275.599 262.539 275.251 262.743 274.666C262.748 274.656 262.75 274.648 262.752 274.641C262.755 274.633 262.757 274.626 262.761 274.616C262.903 274.199 262.966 273.792 262.912 273.564C262.895 273.494 262.868 273.435 262.832 273.405C262.672 273.276 262.37 273.633 262.165 274.199C262.112 274.338 262.068 274.477 262.041 274.606C261.952 275.003 261.952 275.341 262.059 275.46C262.063 275.46 262.065 275.462 262.068 275.465Z" fill="#847F82"/>
<path d="M262.059 275.46L261.988 275.539C261.899 275.39 261.899 275.063 261.988 274.676L262.041 274.606C261.952 274.993 261.952 275.341 262.059 275.46Z" fill="#CECCCD"/>
<path d="M262.832 274.537L262.761 274.616C262.903 274.199 262.957 273.792 262.912 273.564L262.966 273.494C263.01 273.743 262.966 274.13 262.832 274.537Z" fill="#CECCCD"/>
<path d="M257.141 258.843C257.532 258.635 260.911 251.766 260.911 251.766L264.993 248.58L264.798 250.426C264.682 250.942 264.504 251.428 264.255 251.885L263.055 254.099L259.658 263.449L258.021 267.648L257.061 266.516L257.141 258.843Z" fill="#B0876E"/>
</g>
</svg>
